<?xml version="1.0" encoding="UTF-8"?>
<svg id="Capa_3" data-name="Capa 3" xmlns="http://www.w3.org/2000/svg" viewBox="0 0 391.74 400.1" >
  <defs >
    <style>
      .cls-1 {
        stroke-width: 0px;
        fill: #FFEFDD;
      }
    </style>
  </defs>
  <path class="cls-1" d="m34.55,286.85c10-11.57,19.91-23.21,30.03-34.67,7.36-8.34,14.98-16.45,22.68-24.87-1-1.12-1.74-1.95-2.48-2.79-11.56-13.04-23.16-26.04-34.64-39.16-2.41-2.75-4.35-5.92-6.5-8.89-1.48-2.05-1.82-4.24-.59-6.5,1.25-2.29,3.16-3.51,5.86-3.56,19.25-.37,38.41.75,57.53,2.94,27.84,3.19,55.66,6.5,83.52,9.54,6.45.7,13,.71,19.51.7,20.1-.04,40.29-1.73,60.36,3.9.11-1.77.22-3.2.29-4.64.5-9.43.99-18.86,1.49-28.3.03-.63.1-1.26.18-1.88.36-2.82,1.17-5.46,4.09-6.59,2.94-1.14,5.27.31,7.37,2.27,15.59,14.54,34.41,23.83,53.37,32.89,5.2,2.49,10.44,4.9,15.65,7.39,5.28,2.52,6.34,6.73,3.04,11.52-20.33,29.52-44.3,55.94-69.42,81.39-2.02,2.05-4.33,2.91-7.13,1.76-2.91-1.2-4.02-3.53-3.99-6.52.13-13.43.28-26.87.42-40.3,0-.71,0-1.42,0-2.54-5.77,1.25-11.3,2.31-16.76,3.66-25.75,6.35-50.05,16.78-74.63,26.46-22.03,8.68-44.04,17.53-66.47,25.09-23.8,8.02-48.46,11.88-73.75,10.56-3.8-.2-6.94-1.08-9.03-4.44,0-1.47,0-2.94,0-4.41Zm18.98-3.76c1.51,0,2.34.02,3.16,0,18.7-.63,36.83-4.45,54.63-9.98,23.99-7.45,46.84-17.81,69.89-27.62,29.77-12.67,59.7-24.74,92.13-28.99,7.5-.98,11.65,2.47,11.72,9.96.1,10.67.52,21.33.83,32.89,20.63-21.53,39.33-43.38,56.33-67.07-20.56-9.71-41.12-18.94-59.14-32.93-.29.69-.5.97-.52,1.26-.47,8.6-.96,17.19-1.32,25.8-.03.76.59,1.74,1.21,2.28,1.89,1.66,2.58,3.58,1.6,5.9-.97,2.3-3.01,2.72-5.25,2.6-24.33-1.26-48.73-1.8-72.98-3.96-32.72-2.92-65.31-7.24-97.99-10.63-15.13-1.57-30.35-2.33-45.53-3.44-.65-.05-1.31.11-2.4.22,3.68,4.63,7.09,8.88,10.45,13.16,8.55,10.91,17.12,21.8,25.58,32.78,2.65,3.45,1.73,5.89-2.31,7.51-.88.35-1.7,1.12-2.28,1.89-7.68,10.24-15.18,20.62-22.99,30.75-4.54,5.88-9.55,11.4-14.82,17.63Z"/>
</svg>