<?xml version="1.0" encoding="UTF-8"?>
<svg id="Capa_1" data-name="Capa 1" xmlns="http://www.w3.org/2000/svg" viewBox="0 0 391.74 400.1">
  <defs>
    <style>
      .cls-1 {
        stroke-width: 0px;
        fill: #88716D;
      }
    </style>
  </defs>
  <path class="cls-1" d="m346.15,193.75c-27.79,6.49-55.55,6.73-84.21.15,17.2,21.87,22.17,45.88,16.87,71.99-4.02,19.79-14.11,36.17-29.73,48.98-31.61,25.92-77.44,26.55-109,1.28-18.57-14.87-29.28-34.5-32.52-58.02-3.24-23.56,2.99-44.76,18.16-64.47-14.7,3.95-28.57,5.08-42.54,5.03-13.99-.05-27.86-1.34-41.8-5.08-.1,1.43-.24,2.49-.24,3.55-.32,40.64-.63,81.28-.92,121.93-.06,8.97,2,17.15,9.33,23.09,4.81,3.9,10.41,5.7,16.61,5.86,31.05.79,62.1,1.64,93.15,2.47.45.01.9.07,1.36.44-1.84.19-3.67.51-5.51.56-29.43.83-58.86,1.79-88.29,2.38-16.08.32-29.34-9.54-33.74-25-1.31-4.59-1.34-9.63-1.43-14.48-.7-39.26-1.31-78.52-1.89-117.79-.23-15.63.08-31.28-.57-46.89-.49-11.65,8.35-27.39,22.32-33.73,7.72-3.51,15.58-2.78,23.49-2.91,6.51-.11,6.31-.09,8.41-6.22,16.74-49,49.7-80.26,101.05-89.3,47.84-8.42,100.17,19.8,113.44,70.99,1.76,6.77,2.34,13.84,2.87,20.9-3.58-14.84-9.75-28.34-19.15-40.28-22.16-28.13-51.6-40.31-86.74-37.92-43.04,2.93-74.98,25.32-99.22,59.93-4.14,5.92-7.62,12.3-11.38,18.49-.55.91-.92,1.94-1.6,3.4,6.94,0,13.37,0,19.81,0,6.36,0,12.73-.12,19.09.06,2.58.07,4.11-.6,5.07-3.15,3.52-9.44,7.08-18.87,10.88-28.2,3.7-9.08,10.94-13.56,20.46-13.66,22.21-.23,44.42.05,66.62-.13,9.99-.08,16.47,4.88,20.67,13.36,4.66,9.39,9.1,18.89,13.48,28.41.94,2.04,2.1,2.78,4.27,2.63,2.48-.17,4.99-.07,7.48-.03,16.68.23,33.38,1.08,50.03.56,21.18-.67,40.07,15.15,39.96,40.13-.07,13.88-.08,27.76-.23,41.64-.45,41.02-.88,82.03-1.48,123.04-.14,9.59-2.64,18.47-9.53,25.71-9.02,9.49-20.26,11.57-32.59,10.16-4.06-.47-8.09-1.22-12.1-1.84-5.77,21.19-21.87,29.14-41.09,31.2-32.82,3.51-61.58-6.15-85.08-29.99-1.11-1.13-2.12-2.37-3.65-4.08,4.78-.23,8.94-.52,13.11-.62,45.15-1.1,90.29-2.23,135.44-3.22,13.17-.29,24.57-10.97,24.45-23.89-.37-41.89-.94-83.78-1.43-125.67,0-.49-.12-.97-.23-1.76Zm-302.05-4.49c8.86-1.26,17.31-2.83,25.84-3.61,19.99-1.84,39.84-.99,59.4,4.1,1.31.34,3.43-.21,4.41-1.15,10.1-9.72,21.87-16.61,35.24-20.46,6.84-1.97,14.02-2.77,21.05-4.1.08.44.17.88.25,1.33-1.78.36-3.58.68-5.35,1.09-31.26,7.25-52.36,26.22-61.06,56.98-8.55,30.24-.65,57.32,22.7,78.37,22.62,20.4,49.47,24.36,77.45,13.15,28.16-11.29,43.69-33.42,46.68-63.52,4.14-41.75-24.51-74.49-59.14-83.86-3.23-.87-6.52-1.51-9.78-2.26,1.05-.5,2.03-.55,3-.49,20.49,1.27,38.09,9.11,52.87,23.37,1.32,1.27,2.26,2.48,4.71,1.84,24.13-6.33,48.51-6.81,73.02-2.55,4.12.72,8.17,1.84,11.93,2.7,0-13.99.51-27.88-.15-41.72-.6-12.42-13.21-20.67-22.38-20.68-86.45-.09-172.9-.34-259.35-.74-11.73-.05-20.74,10.44-21.16,19.87-.63,14.09-.16,28.23-.16,42.36Zm203.66-76.34c-.12-.66-.1-1.19-.32-1.59-4.26-8.05-8.49-16.1-12.84-24.1-1.79-3.27-4.83-4.49-8.47-4.49-21.81.01-43.62.02-65.43,0-4.14,0-7.11,1.73-9.08,5.4-3.19,5.93-6.49,11.8-9.74,17.7-1.23,2.23-2.46,4.47-3.9,7.08h109.79Zm-68.15,236.66c-.06.25-.12.5-.18.75,3.72,1.67,7.42,3.37,11.16,5,24.68,10.77,50.35,16.57,77.4,15.23,12.17-.6,22.9-4.58,31.24-13.88.84-.94,1.55-2,2.76-3.56-41.38-1.19-81.88-2.36-122.37-3.53Z"/>
  <path class="cls-1" d="m198.9,291.33c16.79-4.98,28.47-14.83,33.28-31.8,6.04-21.29-7.3-44.08-28.31-48.81-21.43-4.82-42.54,9.49-46.54,31.57-3.69,20.35,9.81,41.25,30.5,47.21,1.27.37,2.53.72,3.8,1.09-.06.39-.11.77-.17,1.16-4.3-.64-8.72-.82-12.86-2-17.07-4.89-27.71-16.36-31.96-33.46-4.52-18.15.16-34.19,13.77-46.83,33-30.62,76.66-7.92,83.85,24.41,5.5,24.73-9.68,55.42-41.82,57.45-1.18.07-2.37,0-3.55,0Z"/>
  <path class="cls-1" d="m318.76,153.71c-9.18,9.81-23.23,9.78-31.53.13,6.93-9.9,22.6-10.06,31.53-.13Z"/>
  <path class="cls-1" d="m177.71,239.01c0-5.46,4.17-9.7,9.63-9.78,3.26-.05,6.97,2.31,6.99,4.44.05,4.75-7.04,11.92-12.03,12.16-2.17.1-4.6-3.5-4.6-6.82Z"/>
  <path class="cls-1" d="m84.54,152.59c.07,3.79-3.77,8.44-6.99,8.46-2.65.02-7.45-4.88-7.32-7.48.12-2.36,5.71-7.24,8.31-7.25,3.36-.01,5.93,2.68,6,6.27Z"/>
  <path class="cls-1" d="m214.71,97.51c-11.29,9.76-31.04,9.82-43.17.28,8.29-9.88,31.33-10.15,43.17-.28Z"/>
</svg>