<?xml version="1.0" encoding="UTF-8"?>
<svg id="Capa_2" data-name="Capa 2" xmlns="http://www.w3.org/2000/svg" viewBox="0 0 391.74 400.1">
  <defs>
    <style>
      .cls-1 {
        stroke-width: 0px;
      }
    </style>
  </defs>
  <path class="cls-1" d="m10.78,70.38c17.18-.44,34.36-.87,52.05-1.32.68-18.62,1.36-37.09,2.03-55.56.14,0,.28,0,.43,0,.4,18.42.8,36.84,1.21,55.58,1.65,0,2.87.02,4.09,0,67-1.14,133.99-2.29,200.99-3.47,1.56-.03,3.24-.29,4.64-.94,4.23-1.97,6.75-1.76,10.08,1.69,5.63,5.84,11.01,11.91,16.7,17.69,17.78,18.03,35.46,36.15,53.6,53.82,5.16,5.02,7.22,10.06,7.22,17.26-.04,63.75.33,127.51.54,191.26.05,14.44-8.31,22.83-22.69,22.79-85.6-.24-171.2-.49-256.81-.74-2.25,0-4.49.04-6.74.13-10.58.43-18.99-7.55-18.87-18.21.96-80.96,1.98-161.93,2.99-242.89.13-10.6.25-21.21.58-31.81.09-2.78-.69-3.68-3.5-3.71-14.47-.19-28.94-.56-43.41-.85-1.7-.03-3.41,0-5.12,0,0-.24,0-.48,0-.72Zm56.6,1.31c0,1.34-.02,2.44,0,3.53.86,49.02,1.79,98.05,2.56,147.07.66,42.04,1.14,84.08,1.71,126.12.07,5.31,2.26,7.52,7.48,7.52,7.99,0,15.97-.05,23.96-.07,79.49-.19,158.97-.39,238.46-.58,6.97-.02,8.1-1.13,8.15-7.91.42-64.38.84-128.75,1.3-193.13.05-6.8-.31-7.05-6.92-6.38-16.37,1.67-32.74,3.48-49.16,4.56-12.92.85-21.22-7.63-21.23-20.55-.02-17.47,0-34.93,0-52.4v-4.06c-68.86-1.25-137.3-2.48-206.31-3.73Zm221.65,15.44l-1.25.89c0,3.98.05,7.96,0,11.94-.14,10.09.2,20.22-.64,30.25-.76,9.12,3.78,10.64,9.84,11.18,4.09.36,8.23.24,12.31.64,12.36,1.2,24.71,2.54,38.22,3.95-19.99-20.12-39.23-39.48-58.47-58.84Z"/>
  <path class="cls-1" d="m301.75,224.49c-60.42,9.09-120.87,9.6-181.66.08,16.87-9.96,156.81-10.22,181.66-.08Z"/>
  <path class="cls-1" d="m120.25,300.58c60.57-9.72,121.17-9.38,181.77.2-60.57,9.46-121.14,9.97-181.77-.2Z"/>
</svg>